<?xml version="1.0" standalone="no"?>
<!DOCTYPE svg PUBLIC "-//W3C//DTD SVG 20010904//EN"
 "http://www.w3.org/TR/2001/REC-SVG-20010904/DTD/svg10.dtd">
<svg version="1.0" xmlns="http://www.w3.org/2000/svg"
 width="304.000000pt" height="233.000000pt" viewBox="0 0 304.000000 233.000000"
 preserveAspectRatio="xMidYMid meet">

<g transform="translate(0.000000,233.000000) scale(0.100000,-0.100000)"
fill="white" stroke="none">
<path d="M1000 1603 c-8 -2 -35 -11 -59 -20 -41 -15 -43 -17 -26 -29 14 -10
22 -11 32 -3 9 9 13 8 13 0 0 -7 5 -9 10 -6 6 4 8 10 5 15 -3 5 8 5 25 0 17
-5 32 -5 35 1 4 5 -2 9 -12 10 -10 1 0 7 22 14 50 15 66 -1 38 -40 -21 -29
-33 -32 -33 -8 0 14 -2 14 -21 -2 -15 -14 -19 -28 -16 -52 5 -31 3 -32 -21
-26 -20 5 -24 3 -19 -10 4 -10 -1 -18 -14 -22 -17 -6 -46 -43 -37 -49 75 -44
121 -38 200 25 30 24 67 53 83 64 26 20 27 22 11 38 -10 9 -22 15 -27 12 -5
-4 -9 1 -9 10 0 13 4 14 20 5 16 -9 20 -8 20 5 0 8 -6 15 -13 15 -8 0 -22 9
-32 20 -11 12 -13 20 -6 20 7 0 10 4 6 9 -5 10 -148 13 -175 4z"/>
<path d="M976 1535 c-3 -8 -12 -15 -19 -15 -21 0 -41 -26 -27 -35 9 -6 70 45
70 59 0 12 -18 5 -24 -9z"/>
<path d="M797 1481 c-26 -28 -54 -67 -63 -88 -9 -21 -20 -45 -24 -54 -5 -9
-11 -36 -15 -61 -6 -42 -5 -47 22 -65 15 -11 38 -26 51 -32 l23 -12 -17 33
c-9 18 -23 38 -29 43 -16 12 -28 92 -16 99 4 3 11 19 15 36 3 18 28 54 57 86
29 30 50 56 47 59 -3 3 -26 -17 -51 -44z"/>
<path d="M1334 1493 c5 -9 0 -13 -13 -13 -25 0 -27 -13 -6 -30 21 -17 77 -3
72 18 -2 10 -9 16 -16 14 -7 -1 -20 3 -29 10 -12 10 -14 10 -8 1z"/>
<path d="M1269 1478 c0 -2 -2 -13 -3 -25 -2 -17 0 -20 10 -12 7 6 10 17 7 25
-5 12 -12 18 -14 12z"/>
<path d="M1138 1384 c-38 -31 -68 -60 -68 -65 0 -5 20 -19 45 -31 43 -21 46
-21 80 -5 28 14 35 22 35 46 0 17 4 32 9 35 12 8 11 60 -3 68 -20 13 -30 8
-98 -48z"/>
<path d="M863 1353 c-13 -8 -24 -25 -24 -37 -1 -17 -2 -17 -6 -3 -5 20 -43 23
-61 5 -19 -19 -16 -62 4 -54 12 4 14 1 9 -14 -4 -11 -2 -20 4 -20 6 0 11 -12
11 -26 0 -23 3 -25 23 -19 12 4 39 8 59 9 43 1 44 4 22 47 -10 20 -15 49 -12
80 3 54 3 55 -29 32z m-18 -83 c3 -5 2 -10 -4 -10 -5 0 -13 5 -16 10 -3 6 -2
10 4 10 5 0 13 -4 16 -10z m35 -20 c0 -5 -4 -10 -10 -10 -5 0 -10 5 -10 10 0
6 5 10 10 10 6 0 10 -4 10 -10z"/>
<path d="M905 1331 c-6 -30 17 -101 33 -101 17 0 62 68 56 84 -3 9 -7 16 -9
16 -1 0 -19 7 -38 15 -35 15 -35 15 -42 -14z"/>
<path d="M1037 1283 c-22 -6 -76 -62 -77 -80 0 -6 12 -20 27 -31 l28 -20 50
41 c27 22 54 44 59 48 8 7 -51 51 -64 48 -3 -1 -13 -3 -23 -6z"/>
<path d="M1905 1280 c-3 -5 -4 -14 0 -20 8 -13 35 -1 35 16 0 16 -26 19 -35 4z"/>
<path d="M1980 1280 c0 -5 4 -10 10 -10 5 0 11 -49 12 -112 l3 -113 39 -3 c47
-4 80 11 95 45 18 40 13 82 -14 108 -26 27 -46 31 -76 15 -17 -10 -19 -7 -19
35 0 41 -2 45 -25 45 -14 0 -25 -4 -25 -10z m122 -97 c25 -23 25 -94 -1 -117
-11 -10 -30 -16 -43 -14 -21 3 -23 9 -26 67 -2 45 1 67 10 72 20 13 40 11 60
-8z"/>
<path d="M1657 1272 c7 -4 24 -39 38 -77 14 -39 32 -89 41 -112 9 -24 21 -43
28 -43 8 0 26 45 45 108 18 59 40 113 49 120 13 10 10 12 -24 12 -27 0 -35 -3
-25 -9 12 -8 11 -22 -9 -93 -13 -45 -26 -87 -30 -91 -8 -9 -60 135 -60 165 0
9 6 19 13 21 6 3 -8 6 -33 6 -25 0 -40 -3 -33 -7z"/>
<path d="M1207 1259 c-16 -9 -11 -15 40 -48 32 -21 64 -45 72 -54 7 -9 24 -17
36 -17 34 0 48 23 40 69 l-6 39 -35 -20 -35 -21 -45 32 c-25 17 -46 31 -47 31
-1 0 -10 -5 -20 -11z"/>
<path d="M1102 1190 c-78 -61 -78 -72 -1 -84 31 -5 39 -11 39 -27 0 -20 4 -21
51 -15 64 9 129 34 129 51 0 13 -140 115 -158 115 -6 0 -33 -18 -60 -40z"/>
<path d="M690 1185 c0 -56 38 -157 78 -210 79 -104 199 -165 323 -165 52 0 59
2 59 19 0 13 -16 29 -42 45 -37 22 -45 24 -57 11 -12 -11 -12 -17 -1 -29 10
-14 10 -16 -6 -16 -27 0 -68 37 -103 93 l-30 49 -16 -31 c-21 -42 -29 -39 -11
4 14 32 14 36 -4 45 -17 9 -21 6 -30 -22 -9 -31 -9 -30 -4 13 3 34 1 49 -11
59 -8 7 -15 29 -15 49 -1 33 -5 39 -65 77 l-65 42 0 -33z"/>
<path d="M2233 1205 c-53 -23 -67 -102 -26 -147 18 -20 97 -25 109 -7 4 7 -3
10 -17 9 -58 -5 -89 13 -89 51 0 17 7 19 61 19 l61 0 -7 27 c-13 53 -43 68
-92 48z m55 -17 c7 -7 12 -20 12 -30 0 -15 -8 -18 -45 -18 -46 0 -53 7 -35 41
12 21 50 25 68 7z"/>
<path d="M1895 1200 c-3 -5 -1 -10 4 -10 16 0 14 -137 -1 -143 -7 -3 5 -5 27
-5 22 0 34 2 28 5 -9 3 -13 30 -13 84 0 72 -2 79 -19 79 -11 0 -23 -4 -26 -10z"/>
<path d="M940 1182 c0 -12 19 -26 26 -19 2 2 -2 10 -11 17 -9 8 -15 8 -15 2z"/>
<path d="M1427 1163 c-11 -10 -8 -141 3 -148 6 -4 10 23 10 74 0 81 -1 87 -13
74z"/>
<path d="M1387 1123 c-3 -5 -1 -17 4 -28 4 -11 8 -15 8 -8 1 6 4 18 7 27 6 16
-11 23 -19 9z"/>
<path d="M1275 1065 c-16 -7 -54 -17 -82 -20 l-53 -7 26 -31 c21 -25 25 -39
22 -79 -2 -40 0 -47 12 -41 8 3 40 9 70 12 50 6 56 9 82 48 30 45 43 91 31
110 -13 18 -75 23 -108 8z"/>
<path d="M1126 995 c-4 -14 -13 -25 -21 -25 -9 0 -20 -12 -26 -27 -11 -28 -9
-30 45 -60 27 -14 30 -14 43 3 19 26 16 62 -8 100 -11 19 -22 34 -24 34 -1 0
-6 -11 -9 -25z"/>
<path d="M1388 979 c-10 -19 -30 -50 -45 -69 l-28 -34 33 23 c42 29 64 64 60
92 -3 20 -5 19 -20 -12z"/>
<path d="M1178 863 c7 -3 16 -2 19 1 4 3 -2 6 -13 5 -11 0 -14 -3 -6 -6z"/>
<path d="M1160 830 c0 -5 9 -10 21 -10 11 0 17 5 14 10 -3 6 -13 10 -21 10 -8
0 -14 -4 -14 -10z"/>
</g>
</svg>
